<svg width="38" height="25" viewBox="0 0 38 25" fill="none" xmlns="http://www.w3.org/2000/svg">
<g clip-path="url(#clip0_1_2174)">
<path opacity="0.07" d="M35 0.40625H3C1.3 0.40625 0 1.70625 0 3.40625V21.4062C0 23.1063 1.4 24.4062 3 24.4062H35C36.7 24.4062 38 23.1063 38 21.4062V3.40625C38 1.70625 36.6 0.40625 35 0.40625Z" fill="black"/>
<path d="M35 1.40625C36.1 1.40625 37 2.30625 37 3.40625V21.4062C37 22.5063 36.1 23.4062 35 23.4062H3C1.9 23.4062 1 22.5063 1 21.4062V3.40625C1 2.30625 1.9 1.40625 3 1.40625H35Z" fill="#006FCF"/>
<path d="M8.971 10.6742L9.745 12.5503H8.203L8.971 10.6742ZM25.046 10.7522H22.069V11.5793H24.998V12.8182H22.075V13.7402H25.052V14.4792L27.129 12.2343L25.052 9.89425L25.046 10.7522ZM10.983 8.41225H14.978L15.865 10.3472L16.687 8.40625H27.057L28.135 9.59625L29.25 8.40625H34.013L30.494 12.2583L33.977 16.0863H29.143L28.065 14.8962L26.94 16.0863H10.03L9.536 14.8962H8.406L7.911 16.0863H4L7.286 8.40625H10.716L10.983 8.41225ZM19.646 9.49025H17.407L15.907 13.0262L14.282 9.49025H12.06V14.3003L10 9.49025H8.007L5.625 15.0022H7.18L7.674 13.8123H10.27L10.764 15.0022H13.484V11.0673L15.235 15.0083H16.425L18.165 11.0793V15.0092H19.623L19.647 9.48925L19.646 9.49025ZM28.986 12.2583L31.517 9.49025H29.695L28.094 11.2163L26.546 9.49025H20.652V15.0083H26.462L28.076 13.2703L29.624 15.0083H31.499L28.987 12.2583H28.986Z" fill="white"/>
</g>
<defs>
<clipPath id="clip0_1_2174">
<rect width="38" height="24" fill="white" transform="translate(0 0.40625)"/>
</clipPath>
</defs>
</svg>
