<svg width="38" height="25" viewBox="0 0 38 25" fill="none" xmlns="http://www.w3.org/2000/svg">
<g clip-path="url(#clip0_1_2196)">
<path opacity="0.07" d="M35 0.40625H3C1.3 0.40625 0 1.70625 0 3.40625V21.4062C0 23.1063 1.4 24.4062 3 24.4062H35C36.7 24.4062 38 23.1063 38 21.4062V3.40625C38 1.70625 36.6 0.40625 35 0.40625Z" fill="black"/>
<path d="M35 1.40625C36.1 1.40625 37 2.30625 37 3.40625V21.4062C37 22.5063 36.1 23.4062 35 23.4062H3C1.9 23.4062 1 22.5063 1 21.4062V3.40625C1 2.30625 1.9 1.40625 3 1.40625H35Z" fill="white"/>
<path d="M15 19.4062C18.866 19.4062 22 16.2722 22 12.4062C22 8.54026 18.866 5.40625 15 5.40625C11.134 5.40625 8 8.54026 8 12.4062C8 16.2722 11.134 19.4062 15 19.4062Z" fill="#EB001B"/>
<path d="M23 19.4062C26.866 19.4062 30 16.2722 30 12.4062C30 8.54026 26.866 5.40625 23 5.40625C19.134 5.40625 16 8.54026 16 12.4062C16 16.2722 19.134 19.4062 23 19.4062Z" fill="#F79E1B"/>
<path d="M22 12.4061C22 10.0061 20.8 7.90605 19 6.70605C17.2 8.00605 16 10.1061 16 12.4061C16 14.7061 17.2 16.9061 19 18.1061C20.8 16.9061 22 14.8061 22 12.4061Z" fill="#FF5F00"/>
</g>
<defs>
<clipPath id="clip0_1_2196">
<rect width="38" height="24" fill="white" transform="translate(0 0.40625)"/>
</clipPath>
</defs>
</svg>
