<svg width="38" height="25" viewBox="0 0 38 25" fill="none" xmlns="http://www.w3.org/2000/svg">
<g clip-path="url(#clip0_1_2206)">
<path d="M35 0.40625H3C1.34315 0.40625 0 1.7494 0 3.40625V21.4062C0 23.0631 1.34315 24.4062 3 24.4062H35C36.6569 24.4062 38 23.0631 38 21.4062V3.40625C38 1.7494 36.6569 0.40625 35 0.40625Z" fill="black" fill-opacity="0.07"/>
<path fill-rule="evenodd" clip-rule="evenodd" d="M35 1.40625C36.1 1.40625 37 2.30625 37 3.40625V21.4062C37 22.5063 36.1 23.4062 35 23.4062H3C1.9 23.4062 1 22.5063 1 21.4062V3.40625C1 2.30625 1.9 1.40625 3 1.40625H35Z" fill="#3D95CE"/>
<path d="M24.675 8.76615C24.675 11.8302 22.118 15.8112 20.042 18.6062H15.302L13.4 6.97615L17.551 6.57415L18.556 14.8492C19.496 13.2832 20.655 10.8242 20.655 9.14715C20.655 8.22915 20.501 7.60415 20.261 7.08915L24.041 6.30615C24.478 7.04415 24.675 7.80515 24.675 8.76615Z" fill="white"/>
</g>
<defs>
<clipPath id="clip0_1_2206">
<rect width="38" height="24" fill="white" transform="translate(0 0.40625)"/>
</clipPath>
</defs>
</svg>
