<svg width="38" height="25" viewBox="0 0 38 25" fill="none" xmlns="http://www.w3.org/2000/svg">
<g clip-path="url(#clip0_1_2191)">
<path fill-rule="evenodd" clip-rule="evenodd" d="M35 0.40625H3C1.3 0.40625 0 1.70625 0 3.40625V21.4062C0 23.1063 1.4 24.4062 3 24.4062H35C36.7 24.4062 38 23.1063 38 21.4062V3.40625C38 1.70625 36.6 0.40625 35 0.40625Z" fill="#FFB3C7"/>
<path fill-rule="evenodd" clip-rule="evenodd" d="M35 1.40625C36.1 1.40625 37 2.30625 37 3.40625V21.4062C37 22.5063 36.1 23.4062 35 23.4062H3C1.9 23.4062 1 22.5063 1 21.4062V3.40625C1 2.30625 1.9 1.40625 3 1.40625H35Z" fill="#FFB3C7"/>
<path d="M34.117 13.5903C33.63 13.5903 33.235 13.9903 33.235 14.4823C33.235 14.9753 33.63 15.3752 34.117 15.3752C34.605 15.3752 35 14.9753 35 14.4823C35.0011 14.2469 34.9087 14.0208 34.7431 13.8535C34.5775 13.6863 34.3523 13.5916 34.117 13.5903ZM31.214 12.9003C31.214 12.2243 30.644 11.6772 29.94 11.6772C29.236 11.6772 28.666 12.2243 28.666 12.8993C28.666 13.5743 29.236 14.1222 29.94 14.1222C30.644 14.1222 31.214 13.5743 31.214 12.8993V12.9003ZM31.219 10.5243H32.625V15.2743H31.219V14.9712C30.8095 15.2548 30.3231 15.4066 29.825 15.4062C28.456 15.4062 27.347 14.2843 27.347 12.8993C27.347 11.5153 28.457 10.3933 29.825 10.3933C30.342 10.3933 30.821 10.5532 31.219 10.8282V10.5243ZM19.966 11.1433V10.5243H18.526V15.2743H19.969V13.0573C19.969 12.3082 20.771 11.9073 21.328 11.9073H21.344V10.5253C20.774 10.5253 20.248 10.7723 19.966 11.1433ZM16.38 12.8993C16.38 12.2243 15.81 11.6772 15.106 11.6772C14.403 11.6772 13.832 12.2243 13.832 12.8993C13.832 13.5743 14.402 14.1222 15.106 14.1222C15.81 14.1222 16.38 13.5743 16.38 12.8993ZM16.385 10.5243H17.791V15.2743H16.385V14.9712C15.9752 15.255 15.4885 15.4068 14.99 15.4062C13.622 15.4062 12.512 14.2843 12.512 12.8993C12.512 11.5153 13.622 10.3933 14.99 10.3933C15.507 10.3933 15.987 10.5532 16.384 10.8282V10.5243H16.385ZM24.848 10.3962C24.287 10.3962 23.755 10.5732 23.4 11.0592V10.5243H22V15.2743H23.417V12.7782C23.417 12.0562 23.896 11.7022 24.472 11.7022C25.09 11.7022 25.445 12.0763 25.445 12.7683V15.2753H26.85V12.2542C26.85 11.1482 25.98 10.3962 24.848 10.3962ZM10.465 15.2762H11.937V8.40625H10.465V15.2743V15.2762ZM4 15.2762H5.558V8.40625H4V15.2762ZM9.45 8.40625C9.45395 9.12913 9.31529 9.84569 9.04194 10.5149C8.76859 11.1841 8.36592 11.7929 7.857 12.3062L10.011 15.2762H8.086L5.745 12.0483L6.349 11.5903C6.8417 11.219 7.24085 10.7378 7.51465 10.185C7.78845 9.63225 7.92931 9.02313 7.926 8.40625H9.45Z" fill="#0A0B09"/>
</g>
<defs>
<clipPath id="clip0_1_2191">
<rect width="38" height="24" fill="white" transform="translate(0 0.40625)"/>
</clipPath>
</defs>
</svg>
