<svg width="38" height="25" viewBox="0 0 38 25" fill="none" xmlns="http://www.w3.org/2000/svg">
<g clip-path="url(#clip0_1_2202)">
<path opacity="0.07" d="M35 0.40625H3C1.3 0.40625 0 1.70625 0 3.40625V21.4062C0 23.1063 1.4 24.4062 3 24.4062H35C36.7 24.4062 38 23.1063 38 21.4062V3.40625C38 1.70625 36.6 0.40625 35 0.40625Z" fill="black"/>
<path d="M35 1.40625C36.1 1.40625 37 2.30625 37 3.40625V21.4062C37 22.5063 36.1 23.4062 35 23.4062H3C1.9 23.4062 1 22.5063 1 21.4062V3.40625C1 2.30625 1.9 1.40625 3 1.40625H35Z" fill="#5A31F4"/>
<path d="M21.382 10.1193C21.382 11.7873 20.205 12.9773 18.561 12.9773H17.012C16.9864 12.9777 16.9615 12.9854 16.9402 12.9996C16.9189 13.0138 16.9022 13.0338 16.892 13.0573C16.8854 13.0728 16.882 13.0895 16.882 13.1063V15.2983C16.882 15.3153 16.8786 15.3322 16.8721 15.3479C16.8655 15.3636 16.8559 15.3779 16.8438 15.3899C16.8318 15.4019 16.8174 15.4113 16.8017 15.4178C16.7859 15.4242 16.769 15.4274 16.752 15.4273H15.668C15.6335 15.4273 15.6004 15.4136 15.5761 15.3892C15.5517 15.3648 15.538 15.3318 15.538 15.2973V7.3923C15.5376 7.36655 15.545 7.34128 15.5593 7.31984C15.5736 7.29841 15.5941 7.28183 15.618 7.2723C15.6338 7.26568 15.6508 7.26228 15.668 7.2623H18.568C20.205 7.2623 21.382 8.4523 21.382 10.1203V10.1193ZM20.03 10.1193C20.03 9.1613 19.372 8.4613 18.48 8.4613H17.012C16.9949 8.4613 16.978 8.46466 16.9622 8.4712C16.9465 8.47773 16.9321 8.48731 16.9201 8.49938C16.908 8.51145 16.8984 8.52578 16.8919 8.54155C16.8853 8.55733 16.882 8.57423 16.882 8.5913V11.6413C16.8818 11.6584 16.8851 11.6754 16.8916 11.6912C16.8981 11.707 16.9078 11.7213 16.92 11.7333C16.932 11.7454 16.9464 11.755 16.9622 11.7615C16.978 11.7681 16.9949 11.7714 17.012 11.7713H18.48C19.372 11.7763 20.03 11.0763 20.03 10.1193ZM21.704 13.9103C21.6926 13.6541 21.7458 13.3992 21.8589 13.169C21.972 12.9388 22.1412 12.7408 22.351 12.5933C22.774 12.2773 23.435 12.1133 24.406 12.0793L25.439 12.0433V11.7403C25.439 11.1333 25.029 10.8773 24.371 10.8773C23.713 10.8773 23.296 11.1083 23.201 11.4873C23.1929 11.5139 23.1763 11.5372 23.1537 11.5534C23.1311 11.5697 23.1038 11.5781 23.076 11.5773H22.054C22.0259 11.5777 21.9984 11.5689 21.9756 11.5523C21.9529 11.5357 21.9362 11.5122 21.928 11.4853C21.9226 11.4675 21.9212 11.4487 21.924 11.4303C22.076 10.5323 22.828 9.8503 24.418 9.8503C26.11 9.8503 26.721 10.6333 26.721 12.1263V15.2983C26.7209 15.3155 26.7173 15.3324 26.7106 15.3482C26.7039 15.364 26.6941 15.3783 26.6818 15.3903C26.6696 15.4023 26.6551 15.4117 26.6391 15.4181C26.6232 15.4244 26.6061 15.4276 26.589 15.4273H25.559C25.5245 15.4273 25.4914 15.4136 25.4671 15.3892C25.4427 15.3648 25.429 15.3318 25.429 15.2973V15.0613C25.4293 15.0417 25.4236 15.0225 25.4127 15.0062C25.4018 14.99 25.3862 14.9774 25.368 14.9703C25.3499 14.9632 25.3302 14.9615 25.3112 14.9654C25.2922 14.9693 25.2748 14.9787 25.261 14.9923C24.951 15.3263 24.453 15.5673 23.654 15.5673C22.479 15.5673 21.704 14.9603 21.704 13.9103ZM25.439 13.2233V12.9773L24.1 13.0473C23.395 13.0833 22.985 13.3733 22.985 13.8633C22.985 14.3073 23.361 14.5533 24.019 14.5533C24.912 14.5533 25.439 14.0733 25.439 13.2233ZM27.755 17.8233V16.9043C27.7552 16.885 27.7598 16.8661 27.7682 16.8488C27.7767 16.8315 27.7889 16.8163 27.804 16.8043C27.8189 16.7922 27.8363 16.7835 27.855 16.7789C27.8737 16.7742 27.8931 16.7737 27.912 16.7773C28.07 16.8063 28.23 16.8213 28.391 16.8213C28.6667 16.8364 28.9396 16.7582 29.1654 16.5993C29.3913 16.4403 29.5571 16.21 29.636 15.9453L29.703 15.7343C29.713 15.7058 29.713 15.6748 29.703 15.6463L27.558 10.1753C27.5455 10.1453 27.5448 10.1117 27.5559 10.0811C27.567 10.0506 27.5892 10.0253 27.618 10.0103C27.6371 10.0002 27.6584 9.99508 27.68 9.9953H28.72C28.7467 9.99537 28.7727 10.0035 28.7947 10.0187C28.8166 10.0339 28.8335 10.0554 28.843 10.0803L30.299 13.9393C30.308 13.9652 30.3249 13.9876 30.3473 14.0034C30.3697 14.0192 30.3966 14.0276 30.424 14.0273C30.4513 14.0273 30.478 14.0188 30.5004 14.0031C30.5228 13.9873 30.5397 13.965 30.549 13.9393L31.814 10.0913C31.8226 10.0648 31.8394 10.0417 31.8621 10.0255C31.8848 10.0093 31.9121 10.0008 31.94 10.0013H33.016C33.0483 10.0015 33.0794 10.0133 33.1036 10.0346C33.1279 10.056 33.1436 10.0853 33.148 10.1173C33.1504 10.1386 33.1477 10.1602 33.14 10.1803L30.845 16.2563C30.317 17.6693 29.412 18.0293 28.415 18.0293C28.2258 18.0345 28.0368 18.0123 27.854 17.9633C27.8233 17.9558 27.7964 17.9375 27.778 17.9118C27.7597 17.8861 27.7512 17.8547 27.754 17.8233H27.755ZM8.56998 6.8063C7.20548 6.7961 5.8884 7.30641 4.88698 8.2333C4.84437 8.27206 4.81777 8.32533 4.81241 8.38268C4.80704 8.44003 4.8233 8.49732 4.85798 8.5433L5.47598 9.3823C5.49601 9.41059 5.52202 9.43412 5.55216 9.45123C5.58231 9.46833 5.61585 9.47858 5.65041 9.48125C5.68497 9.48393 5.71969 9.47896 5.75211 9.46669C5.78452 9.45443 5.81384 9.43518 5.83798 9.4103C6.1979 9.0529 6.62535 8.77069 7.09542 8.58012C7.56549 8.38955 8.06879 8.29443 8.57598 8.3003C10.696 8.3003 11.803 9.8843 11.803 11.4503C11.803 13.1503 10.64 14.3483 8.96798 14.3713C7.67598 14.3713 6.70198 13.5213 6.70198 12.3973C6.70309 12.1131 6.76768 11.8327 6.89104 11.5766C7.0144 11.3206 7.19341 11.0953 7.41498 10.9173C7.46216 10.8786 7.49211 10.8228 7.49829 10.7621C7.50447 10.7014 7.48639 10.6407 7.44798 10.5933L6.79798 9.7783C6.77836 9.75324 6.75387 9.73242 6.72598 9.71707C6.6981 9.70172 6.6674 9.69217 6.63573 9.689C6.60406 9.68582 6.57208 9.68908 6.54171 9.69859C6.51133 9.70809 6.48319 9.72364 6.45898 9.7443C6.06088 10.0636 5.73906 10.4678 5.51698 10.9273C5.2957 11.3858 5.18051 11.8882 5.17998 12.3973C5.17998 14.3323 6.83498 15.8493 8.95498 15.8613H8.98498C11.502 15.8293 13.322 13.9773 13.322 11.4463C13.322 9.1993 11.655 6.8063 8.56998 6.8063Z" fill="white"/>
</g>
<defs>
<clipPath id="clip0_1_2202">
<rect width="38" height="24" fill="white" transform="translate(0 0.40625)"/>
</clipPath>
</defs>
</svg>
