<svg width="38" height="25" viewBox="0 0 38 25" fill="none" xmlns="http://www.w3.org/2000/svg">
<g clip-path="url(#clip0_1_2183)">
<path opacity="0.07" d="M35 0.40625H3C1.3 0.40625 0 1.70625 0 3.40625V21.4062C0 23.1063 1.4 24.4062 3 24.4062H35C36.7 24.4062 38 23.1063 38 21.4062V3.40625C38 1.70625 36.6 0.40625 35 0.40625Z" fill="black"/>
<path d="M35 1.40625C36.1 1.40625 37 2.30625 37 3.40625V21.4062C37 22.5063 36.1 23.4062 35 23.4062H3C1.9 23.4062 1 22.5063 1 21.4062V3.40625C1 2.30625 1.9 1.40625 3 1.40625H35Z" fill="white"/>
<path d="M18.093 12.3825V15.5825H17.075V7.68248H19.766C20.0884 7.67702 20.4087 7.73535 20.7085 7.85411C21.0083 7.97286 21.2817 8.14971 21.513 8.37448C21.732 8.57887 21.9086 8.82443 22.0327 9.09712C22.1568 9.3698 22.2259 9.66427 22.2361 9.96368C22.2463 10.2631 22.1974 10.5616 22.0922 10.8421C21.987 11.1226 21.8275 11.3796 21.6229 11.5985L21.513 11.7145C21.043 12.1615 20.415 12.4045 19.766 12.3885L18.093 12.3825ZM18.093 8.65048V11.4385H19.791C20.168 11.4505 20.5319 11.3035 20.7959 11.0345C20.9848 10.8377 21.1116 10.5896 21.1606 10.3213C21.2096 10.053 21.1786 9.77617 21.0715 9.52531C20.9644 9.27445 20.7859 9.06061 20.5582 8.9104C20.3305 8.76019 20.0637 8.68023 19.791 8.68048L18.093 8.65048ZM24.577 9.99848C25.2269 9.96848 25.863 10.1865 26.3549 10.6115C26.7999 11.0415 27.0369 11.6415 27.0049 12.2605V15.5945H26.0359V14.8285H25.9869C25.8132 15.1158 25.5674 15.3528 25.274 15.5161C24.9806 15.6793 24.6497 15.7632 24.3139 15.7595C23.7658 15.7772 23.2314 15.5868 22.818 15.2265C22.6221 15.0667 22.4651 14.8645 22.3589 14.6351C22.2527 14.4057 22.2001 14.1552 22.205 13.9025C22.1934 13.6471 22.243 13.3926 22.3496 13.1602C22.4563 12.9279 22.6168 12.7243 22.818 12.5665C23.3114 12.2116 23.9086 12.0305 24.516 12.0515C25.033 12.0315 25.546 12.1445 26.006 12.3825V12.1745C26.0093 12.0025 25.9735 11.832 25.9013 11.6759C25.829 11.5198 25.7222 11.3822 25.589 11.2735C25.3213 11.0301 24.9706 10.8985 24.6089 10.9055C24.3463 10.903 24.0873 10.9675 23.8565 11.093C23.6257 11.2185 23.4307 11.4007 23.29 11.6225L22.395 11.0585C22.638 10.7103 22.9661 10.4301 23.348 10.2445C23.7299 10.059 24.153 9.97428 24.577 9.99848ZM23.29 13.9265C23.2875 14.056 23.317 14.1841 23.3758 14.2996C23.4346 14.415 23.5208 14.5142 23.627 14.5885C23.85 14.7645 24.127 14.8575 24.412 14.8515C24.841 14.8505 25.252 14.6815 25.558 14.3795C25.863 14.0935 26.0359 13.6945 26.0359 13.2765C25.651 13.0028 25.1832 12.8707 24.712 12.9025C24.346 12.8881 23.9851 12.9911 23.6819 13.1965C23.5619 13.2768 23.4634 13.3854 23.395 13.5126C23.3267 13.6399 23.2906 13.782 23.29 13.9265ZM32.576 10.1765L29.186 17.9665H28.138L29.419 15.2385L27.195 10.1765H28.298L29.91 14.0615L31.479 10.1765H32.576Z" fill="#5F6368"/>
<path d="M13.986 11.69C13.986 11.382 13.962 11.074 13.913 10.77H9.62305V12.517H12.074C12.0241 12.7947 11.9187 13.0594 11.7641 13.2953C11.6094 13.5312 11.4087 13.7335 11.174 13.89V15.024H12.638C13.0832 14.5933 13.4331 14.0741 13.6653 13.4999C13.8975 12.9256 14.0067 12.3091 13.986 11.69Z" fill="#4285F4"/>
<path d="M9.62903 16.1272C10.7353 16.1576 11.8117 15.7653 12.639 15.0302L11.173 13.8902C10.8208 14.116 10.4217 14.2586 10.006 14.307C9.59043 14.3554 9.16924 14.3084 8.77451 14.1696C8.37978 14.0307 8.02191 13.8037 7.72812 13.5058C7.43432 13.2078 7.21233 12.8468 7.07903 12.4502H5.57703V13.6202C5.95288 14.3732 6.53107 15.0067 7.24678 15.4495C7.96249 15.8923 8.78741 16.127 9.62903 16.1272Z" fill="#34A853"/>
<path d="M7.07905 12.4563C6.88885 11.8936 6.88885 11.284 7.07905 10.7213V9.55127H5.57705C5.25684 10.1827 5.08997 10.8808 5.08997 11.5888C5.08997 12.2968 5.25684 12.9948 5.57705 13.6263L7.07905 12.4563Z" fill="#FBBC04"/>
<path d="M9.62903 8.84644C10.276 8.83462 10.9015 9.07905 11.369 9.52644L12.669 8.23344C11.8401 7.45545 10.7407 7.0311 9.60403 7.05044C8.76739 7.05463 7.94827 7.29044 7.23746 7.73172C6.52665 8.17299 5.95194 8.8025 5.57703 9.55044L7.07903 10.7214C7.25465 10.1815 7.59512 9.71025 8.05253 9.37391C8.50995 9.03757 9.0613 8.8531 9.62903 8.84644Z" fill="#EA4335"/>
</g>
<defs>
<clipPath id="clip0_1_2183">
<rect width="38" height="24" fill="white" transform="translate(0 0.40625)"/>
</clipPath>
</defs>
</svg>
