<svg width="38" height="25" viewBox="0 0 38 25" fill="none" xmlns="http://www.w3.org/2000/svg">
<g clip-path="url(#clip0_1_2179)">
<path opacity="0.07" d="M35 0.40625H3C1.3 0.40625 0 1.70625 0 3.40625V21.4062C0 23.1063 1.4 24.4062 3 24.4062H35C36.7 24.4062 38 23.1063 38 21.4062V3.40625C38 1.70625 36.6 0.40625 35 0.40625Z" fill="black"/>
<path d="M35 1.40625C36.1 1.40625 37 2.30625 37 3.40625V21.4062C37 22.5063 36.1 23.4062 35 23.4062H3C1.9 23.4062 1 22.5063 1 21.4062V3.40625C1 2.30625 1.9 1.40625 3 1.40625H35Z" fill="white"/>
<path d="M12 12.4062V16.1062C12 16.4062 11.8 16.4062 11.5 16.3062C9.59998 15.5062 8.49998 13.0062 9.19998 10.9062C9.59998 9.80625 10.4 8.90625 11.5 8.50625C11.9 8.30625 12 8.40625 12 8.70625V12.4062ZM14 12.4062V8.70625C14 8.40625 14 8.40625 14.3 8.50625C16.4 9.30625 17.5 11.8063 16.7 13.9062C16.3 15.0063 15.5 15.9062 14.4 16.3062C14 16.5062 14 16.4062 14 16.1062V12.4062ZM21.2 5.40625H13C16.8 5.40625 19.8 8.50625 19.8 12.4062C19.8 16.3062 16.8 19.4062 13 19.4062H21.2C25 19.4062 28 16.3062 28 12.4062C28 8.50625 25 5.40625 21.2 5.40625Z" fill="#3086C8"/>
</g>
<defs>
<clipPath id="clip0_1_2179">
<rect width="38" height="24" fill="white" transform="translate(0 0.40625)"/>
</clipPath>
</defs>
</svg>
