<svg width="38" height="25" viewBox="0 0 38 25" fill="none" xmlns="http://www.w3.org/2000/svg">
<g clip-path="url(#clip0_1_2211)">
<path opacity="0.07" d="M35 0.40625H3C1.3 0.40625 0 1.70625 0 3.40625V21.4062C0 23.1063 1.4 24.4062 3 24.4062H35C36.7 24.4062 38 23.1063 38 21.4062V3.40625C38 1.70625 36.6 0.40625 35 0.40625Z" fill="black"/>
<path d="M35 1.40625C36.1 1.40625 37 2.30625 37 3.40625V21.4062C37 22.5063 36.1 23.4062 35 23.4062H3C1.9 23.4062 1 22.5063 1 21.4062V3.40625C1 2.30625 1.9 1.40625 3 1.40625H35Z" fill="white"/>
<path d="M28.3 10.5063H28C27.6 11.5063 27.3 12.0063 27 13.5063H28.9C28.6 12.0063 28.6 11.3063 28.3 10.5063ZM31.2 16.4062H29.5C29.4 16.4062 29.4 16.4062 29.3 16.3062L29.1 15.4062L29 15.2063H26.6C26.5 15.2063 26.4 15.2063 26.4 15.4062L26.1 16.3062C26.1 16.4062 26 16.4062 26 16.4062H23.9L24.1 15.9062L27 9.10625C27 8.60625 27.3 8.40625 27.8 8.40625H29.3C29.4 8.40625 29.5 8.40625 29.5 8.60625L30.9 15.1062C31 15.5062 31.1 15.8063 31.1 16.2063C31.2 16.3063 31.2 16.3063 31.2 16.4062ZM17.8 16.1062L18.2 14.3062C18.3 14.3062 18.4 14.4062 18.4 14.4062C19.1 14.7063 19.8 14.9062 20.5 14.8062C20.7 14.8062 21 14.7062 21.2 14.6062C21.7 14.4062 21.7 13.9063 21.3 13.5063C21.1 13.3063 20.8 13.2063 20.5 13.0063C20.1 12.8063 19.7 12.6062 19.4 12.3062C18.2 11.3062 18.6 9.90625 19.3 9.20625C19.9 8.80625 20.2 8.40625 21 8.40625C22.2 8.40625 23.5 8.40625 24.1 8.60625H24.2C24.1 9.20625 24 9.70625 23.8 10.3062C23.3 10.1062 22.8 9.90625 22.3 9.90625C22 9.90625 21.7 9.90625 21.4 10.0063C21.2 10.0063 21.1 10.1063 21 10.2063C20.8 10.4063 20.8 10.7062 21 10.9062L21.5 11.3062C21.9 11.5062 22.3 11.7062 22.6 11.9062C23.1 12.2062 23.6 12.7062 23.7 13.3062C23.9 14.2062 23.6 15.0062 22.8 15.6062C22.3 16.0062 22.1 16.2063 21.4 16.2063C20 16.2063 18.9 16.3063 18 16.0063C17.9 16.2063 17.9 16.2062 17.8 16.1062ZM14.3 16.4062C14.4 15.7063 14.4 15.7063 14.5 15.4062C15 13.2063 15.5 10.9063 15.9 8.70625C16 8.50625 16 8.40625 16.2 8.40625H18C17.8 9.60625 17.6 10.5062 17.3 11.6062C17 13.1062 16.7 14.6062 16.3 16.1062C16.3 16.3062 16.2 16.3062 16 16.3062L14.3 16.4062ZM5 8.60625C5 8.50625 5.2 8.40625 5.3 8.40625H8.7C9.2 8.40625 9.6 8.70625 9.7 9.20625L10.6 13.6062C10.6 13.7062 10.6 13.7062 10.7 13.8062C10.7 13.7062 10.8 13.7063 10.8 13.7063L12.9 8.60625C12.8 8.50625 12.9 8.40625 13 8.40625H15.1C15.1 8.50625 15.1 8.50625 15 8.60625L11.9 15.9062C11.8 16.1062 11.8 16.2062 11.7 16.3062C11.6 16.4062 11.4 16.3062 11.2 16.3062H9.7C9.6 16.3062 9.5 16.3062 9.5 16.1062L7.9 9.90625C7.7 9.70625 7.4 9.40625 7 9.30625C6.4 9.00625 5.3 8.80625 5.1 8.80625L5 8.60625Z" fill="#142688"/>
</g>
<defs>
<clipPath id="clip0_1_2211">
<rect width="38" height="24" fill="white" transform="translate(0 0.40625)"/>
</clipPath>
</defs>
</svg>
